<?xml version="1.0" encoding="UTF-8"?>
<svg viewBox="0 0 148.8125 144.53125" xmlns="http://www.w3.org/2000/svg">
 <g transform="translate(-283.19 -28.698)">
  <path d="m378.69186,28.69798-2.53125.0625-2.53125.0625-2.5625,1.25-2.59375,1.28125-1.65625,2.15625-1.65625,2.15625-.5,1.9375-.53125,1.96875 .21875,1.90625 .21875,1.90625h-3.40625-3.40625l-1.875,1.28125c-1.02662.71975-2.70059,1.96813-3.71875,2.75l-1.84375,1.40625h-2.875-2.84375l1.03125,1.125 1.0625,1.125 1.8125.53125 1.8125.5625h2.96875 2.9375l.90625-.5c1.74445-.93359.92212-.13105-1.5625,1.53125-1.37106.91731-3.52227,2.60197-4.78125,3.71875l-2.3125,2.03125 .5625.3125 .53125.34375-2.0625.59375-2.03125.59375-1.5625,1.90625c-.84874,1.04775-1.53126,2.09533-1.53125,2.3125v.375l1.78125.1875 1.78125.1875-2.34375.09375-2.3125.0625 .28125.3125c.16086.16084.98173.46668 1.84375.6875l1.59375.40625-2.375-.25-2.375-.25-.875,1.5625-.875,1.53125 .84375.625 .84375.59375h-.46875c-.26362-1e-005-1.31701.77365-2.34375,1.6875l-1.875,1.65625h1.5 1.53125l.3125.53125 .34375.53125-.65625.40625-.65625.40625h-2l-1.96875.03125-1.125,1.53125c-.60536.84506-1.39124,2.06218-1.75,2.71875l-.65625,1.1875-.21875,3.5-.25,3.46875 1.25,1.1875c.68883.6387 1.25001,1.36923 1.25,1.625s.52049,1.27414 1.15625,2.28125l1.15625,1.84375 2.15625-.5 2.1875-.5v-.53125-.53125l-1.46875-.84375c-.80154-.47348-1.34536-.96716-1.21875-1.09375s2.21853,1.24138 4.65625,3.0625c4.54974,3.39883 7.75949,5.22524 11.09375,6.28125 1.04463.33084 2.15371.78165 2.46875,1.03125l.5625.46875 .40625-.25 .40625-.25 2.09375.71875c1.15559.39813 2.37046.92437 2.6875,1.1875l.59375.5 .4375-.3125 .46875-.28125 .3125.5 .28125.46875h-.6875-.6875l-1.5625,1.78125-1.5625,1.78125-5.25.3125c-2.88919.17396-7.65579.35308-10.59375.375l-5.34375.03125v-.5-.53125l-1.03125.15625-1.03125.15625-.90625,1.65625c-.50187.91404-1.90845,3.05249-3.125,4.75-1.50411,2.14686-2.90227,4.15635-4.3125,6.1875-4.40065-2.81379-9.6205-4.46875-15.21875-4.46875-15.62573,0-28.34375,12.71805-28.34375,28.34375s12.71805,28.34375 28.34375,28.34375 28.34375-12.71805 28.34375-28.34375c-2e-005-8.63993-3.8818-16.39018-10-21.59375 1.47761-2.13329 2.98361-4.28229 4.59375-6.53125 .73514-1.05858 1.47733-1.91628 1.65625-1.90625 .24751.01389 7.05089,16.77427 8.90625,21.9375l.3125.84375h-.65625-.65625l-.46875.84375c-.25778.46924-.94939,1.80576-1.53125,2.96875l-1.0625,2.125v1.625 1.625l.96875,2.0625 1,2.0625 1.75,1.28125c.95261.71108 1.92631,1.54132 2.1875,1.84375l3.46875.0625 2.96875-.5 2.125-1.875 2.09375-1.84375 .5-1.75c.26784-.96428.49856-2.57498.5-3.5625v-1.78125l.78125-.3125 .8125-.3125 .1875.5625 .1875.5625h.6875 .65625l.0625-.84375 .0625-.8125 .21875.8125 .1875.84375h1.1875c.64867,0 2.08607-.22265 3.1875-.5l2-.5 .625-1.75c.33946-.96314.7104-2.30102.84375-2.96875l.25-1.21875-.75-.625-.75-.625-.71875.59375-.71875.59375v-.84375-.8125l-1.15625.21875-1.1875.21875 .25-.40625 .25-.40625-1.1875-.46875c-.66859-.2542-1.21874-.56629-1.21875-.71875v-.28125l.46875.28125 .46875.3125 .875-.625c.48561-.34157 3.87196-3.44178 7.5-6.875s7.27355-6.82581 8.125-7.53125l1.5625-1.28125 2.40625,4.34375c-5.75549,5.19178-9.375,12.69037-9.375,21.03125 2e-005,15.62571 12.71805,28.34375 28.34375,28.34375s28.34375-12.71805 28.34375-28.34375-12.71805-28.34375-28.34375-28.34375c-5.50202,0-10.64727,1.58711-15,4.3125l-1.4375-2.96875c-.67906-1.52364-1.88756-4.32537-2.6875-6.21875l-1.4375-3.4375h-.53125c-.77847.02228-2.1875,1.18847-2.1875,1.8125v.5625h-5.46875-5.4375l-.71875,1.40625-.75,1.40625 7.25.125 7.25.125 .125,1.1875 .15625,1.1875-.46875-.6875-.5-.71875-1.8125,1.78125-1.8125,1.78125h-.5625-.59375l-.03125.59375-.03125.59375-5.1875,4.5c-2.85182,2.48097-6.38974,5.63697-7.875,7.03125l-2.71875,2.5625 .65625,1 .625,1.03125-.8125-.6875-.84375-.6875 .28125-1.3125 .25-1.34375h-.875-.875l-.75,1.0625-.75,1.0625 .71875-2.59375c.40101-1.43634 1.21957-3.68331 1.8125-5 1.2871-2.8582 8.05912-15.05959 9.46875-17.0625l1-1.40625v-1.71875-1.75l-1.90625-2.75c-1.03868-1.51731-3.27122-4.18394-4.96875-5.9375l-3.09375-3.1875-4.84375-3.1875-4.875-3.1875v-.4375-.46875l1.21875.8125 1.25.8125 .90625-1.15625c.49541-.63585 1.21624-1.73724 1.59375-2.46875l.6875-1.34375-1.0625-.40625-1.03125-.4375 1.25-.03125 1.25-.03125 1.375-1.59375c.74524-.87375 1.60574-1.97145 1.9375-2.46875l.59375-.90625-.4375.96875-.46875,1 .71875,2.03125c.38385,1.11406 1.13663,2.91437 1.6875,4l1,1.96875 3.875,4.03125c2.13818,2.2198 4.37679,4.68529 4.96875,5.46875s1.234,1.44515 1.40625,1.46875 1.09262.37952 2.0625.8125l1.78125.78125 .46875.90625c.2614.48839.38012.96287.28125,1.0625s.45781.22649 1.21875.28125l1.375.09375v-.375c1e-005-.21867-.32703-.6749-.71875-1s-.71878-.80439-.71875-1.0625v-.46875l.84375,1.03125 .84375,1.03125 .8125-.3125 .84375-.3125v-.625-.625l-.84375-.21875-.8125-.21875 1.03125-.0625 1.03125-.0625 .3125.5 .3125.46875-1.5,1.40625-1.46875,1.375-1.0625.125-1.03125.15625-.125,2.15625-.125,2.125 .4375.65625 .40625.65625 .78125-.28125 .75-.28125v-1.375-1.34375l1.96875-1.84375 1.96875-1.8125-.4375,2.8125c-.23136,1.54504-.38128,4.06766-.34375,5.59375l.0625,2.78125 .53125.5 .5.53125 1.21875-1.15625c.67013-.62954 1.49979-1.59603 1.8125-2.15625s1.01022-1.86145 1.5625-2.875l1-1.84375 .3125-1.78125 .34375-1.78125h-.71875-.6875l-.3125-.9375c-.16576-.52232-.45461-.93751-.65625-.9375s-.6206-.52926-.90625-1.15625l-.5-1.125 .9375-.25 .9375-.25-.59375.71875-.59375.75 1.03125.84375c.57914.46893 1.06252,1.09042 1.0625,1.375v.5h1.875 1.84375l.3125-.9375 .3125-.96875 1.15625.3125 1.15625.28125v-1-1h-.65625-.625l-1.46875-1.84375-1.5-1.84375-1.625-.3125c-.90654-.17008-2.71889-.61029-4.03125-1l-2.40625-.71875-4.65625-4.65625c-2.56017-2.55453-5.34711-5.17309-6.21875-5.8125l-1.59375-1.15625 .5-3.71875c.28405-2.04211.53127-4.6458.53125-5.8125v-2.125l1.0625-1.9375c.58761-1.06964 1.33366-2.41658 1.65625-2.96875l.59375-1v-1.5625-1.59375l-.46875-.90625-.5-.90625-.8125-.03125h-.8125l.71875-.46875 .6875-.46875-1.0625-.28125-1.0625-.28125 .28125-.46875 .28125-.4375 .6875.5625 .65625.5625 .25-.25 .25-.25-2.5625-2.9375c-1.42242-1.63098-2.85599-3.4743-3.1875-4.09375l-.625-1.125 .375-.375 .34375-.34375 1.28125,1.4375c.69659.79433 2.03239,2.39836 3,3.5625l1.78125,2.125v-3.40625l.03125-3.375 .71875-.59375 .71875-.59375v4.75 4.71875l1.8125.5625c1.00964.30248 2.19826.53124 2.625.53125l.71875-.375 .0625-.8125v-1.1875l.34375-.59375 .65625-.84375-.625-.53125 1-.71875 1-.6875v-.6875-.6875h.53125 .5l-.34375-.8125c-.19562-.45704-.42816-1.46856-.5-2.25l-.125-1.4375 .5625-.34375c.30482-.19392 1.24498-.37099 2.09375-.375h1.5625v-1c1e-005-.55731-.27752-1.89384-.59375-2.96875l-.5625-1.96875-2.625-2.625-2.65625-2.65625-2.375-.65625-2.375-.65625zm-4.25,2.8125h3.15625 3.15625l2.0625,1.4375 2.0625,1.4375 1.0625,1.59375c.59147.87766 1.06249,1.87046 1.0625,2.1875v.5625l-3.15625.3125-3.15625.34375-2.90625.96875-2.875,1-3.3125.21875-3.34375.1875-.5625-.40625-.59375-.40625 .5-1.78125c.27027-.97881.93228-2.52823 1.46875-3.4375l.96875-1.65625 2.1875-1.28125 2.21875-1.28125zm2.8125.125-1.9375.53125-1.9375.53125-1.59375,1.0625-1.625,1.09375-.15625.8125c-.2006,1.04161-.03704,1.03847 2.375-.21875l2-1.0625 2.65625-.1875 2.65625-.1875 1.75.5 1.78125.46875 .21875-.40625 .25-.375-1.34375-.96875-1.375-1-1.875-.28125-1.84375-.3125zm2.25,3.5625-2.53125.375c-3.06646.47942-6.30642,1.65146-7.0625,2.5625l-.53125.6875 .28125.5c.3813.61694.0527.66091 3.375-.53125l2.8125-1.03125 3.6875-.21875 3.6875-.21875v-.59375-.59375l-1.84375-.46875-1.875-.46875zm-9.03125,13.875c.0997-.09971.86658.54189 1.71875,1.4375s1.39007,1.62402 1.1875,1.59375-.75857-.1612-1.21875-.28125l-.8125-.21875 .21875-.40625 .25-.40625-.75-.75c-.42522-.42524-.69344-.86905-.59375-.96875zm-8.15625.21875v.4375 .40625l-1.0625.25c-.58758.12744-1.50895.38797-2.03125.59375l-.9375.375 .25-.28125c.14401-.16383 1.06535-.62767 2.03125-1.03125l1.75-.75zm10.15625,3.3125c.23818-.01899.45049-.01693.59375,0 .19102.02256.24274.08681.125.1875-.1088.09307-.92968.30102-1.84375.46875l-1.65625.3125 .71875-.46875c.36209-.23736 1.348-.44307 2.0625-.5zm-3.5625,2.875c.13058-1e-005-.37439.65402-1.125,1.4375s-1.46316,1.40625-1.59375,1.40625 .37435-.6228 1.125-1.40625 1.46317-1.43749 1.59375-1.4375zm-3.75,7.59375h.53125 .53125l-.34375.84375c-.18839.45702-.49045,2.00114-.6875,3.4375l-.375,2.59375-.0625-1.78125-.0625-1.78125-1.1875.28125-1.1875.3125v-.46875-.46875l1.4375-.59375 1.40625-.59375v-.875-.90625zm.125,12.125 .21875.8125c.11943.45702.11943,1.19922 0,1.65625l-.21875.84375v-1.65625-1.65625zm-19,1.1875c.26088-1e-005 1.31666.81668 2.34375,1.84375l1.875,1.875-.625.96875-.59375,1-.96875.03125-.9375.03125 .9375.40625 .9375.40625-1.28125.03125-1.3125.03125v.5 .46875l1.90625-.3125 1.875-.28125v.96875 1l1.5625.8125c3.00652,1.54318 7.77039,4.84149 10.09375,7l2.375,2.1875-2.625,2.375c-2.58487,2.34211-3.31252,2.7931-3.3125,1.96875v-.4375l-6.0625-4.0625c-6.81938-4.57446-7.42233-5.07574-9.28125-7.5625l-1.34375-1.75 .3125-1.78125c.56034-3.38316 2.87322-7.71875 4.125-7.71875zm18.96875,3.0625 .25.71875c.13716.39172 1.22418,1.61888 2.4375,2.71875 2.82198,2.55816 2.46381,2.60147-.5.0625l-2.28125-1.9375 .0625-.78125 .03125-.78125zm-33.1875,3.34375 .1875,1.40625c.09778.78344.2782,1.91717.40625,2.5l.25,1.0625 1.46875,1.6875c.81446.9276 1.38886,1.76738 1.28125,1.875-.35097.35097-1.17544-.44911-2.46875-2.375l-1.25-1.875 .0625-2.15625 .0625-2.125zm38.09375,2.03125 1.6875,1.21875c.93208.67137 3.13028,1.86513 4.875,2.65625s3.15622,1.55952 3.15625,1.6875c1e-005,.3335-1.98982.22538-2.875-.15625-.85772-.36979-3.09808-2.0994-5.3125-4.0625l-1.53125-1.34375zm23.96875,8.40625-.125,1.1875-.09375,1.1875-1.5625.15625-1.53125.125v-.4375-.4375l1.1875.25 1.1875.21875 .46875-1.125 .46875-1.125zm-53.96875,1.59375-4,1.03125-4,1.03125-2.84375-.28125c-1.56692-.15847-3.26401-.30416-3.78125-.3125l-.9375-.03125-.59375.84375c-.84824,1.16006-.78546,1.53967.4375,2.03125l1.09375.4375-.96875.0625-.9375.0625 .9375.40625 .96875.40625-.5625.03125-.53125.03125 .21875.96875c.1366.5223.39711.97454.5625,1s1.98803.11227 4.03125.1875l3.6875.125 2.625-1.40625 2.625-1.40625-.3125.53125-.3125.53125 1.46875,1.65625c.81245.92532 2.01276,2.54316 2.65625,3.5625l1.15625,1.84375 1.21875-.46875c.67055-.25494 1.4718-.47274 1.78125-.46875l.5625.03125-.71875.4375-.6875.46875h5.625l5.625.03125-.25-.6875c-.13988-.36455-.52173-1.51886-.84375-2.59375-.68694-2.29284-.88155-2.47105-4-3.59375-1.30576-.4701-3.49479-1.50676-4.875-2.28125l-2.5-1.40625-.65625.25-.625.25 .0625-.71875 .0625-.71875-1.21875-.9375-1.25-.9375zm45.1875.375 1.03125.5625c.56943.30337 1.52369,1.19941 2.09375,2l1.03125,1.46875 .65625-.25 .65625-.25v.84375c1e-005,.47515-.26059,1.61228-.5625,2.5l-.53125,1.59375-1.40625,1.78125-1.375,1.78125h-.90625-.90625v-2.21875-2.21875l.75-3.03125 .75-3-.625-.78125-.65625-.78125zm-9.84375.3125c-.38814.04222-.23445.46521.4375,1.25l.84375.96875 .46875-.125c.25049-.0835.5222-.41025.625-.71875l.1875-.5625-1.28125-.5c-.62022-.23582-1.04836-.33784-1.28125-.3125zm-34,2.8125c.1003-.01927.19159-.02715.21875,0 .10304.10301-.55797.53442-1.46875.96875s-1.65623.71341-1.65625.59375c1e-005-.28429 2.20424-1.42768 2.90625-1.5625zm-8.77614,5.14523 1.8783,4.18329 1.6875-.6875-2.13341-4.01602-1.43239.52023zm49.74489.44852c-.43915,0-3.0625,1.41622-3.0625,1.65625 1e-005,.38173.85901.26432 2.125-.3125 1.06292-.48429 1.65971-1.34376.9375-1.34375zm-54.34375,2.84375v1.15625 1.15625l1,1.6875c1.13264,1.91969 1.64236,2.11758 2,.75l.25-.96875 .75.3125 .75.28125v-.75-.78125l-.9375-.59375-.96875-.59375v-.8125-.84375h-1.40625-1.4375zm28.03125,4.75-.03125.34375c-.00399.19588-.21819.67076-.5,1.0625l-.53125.71875 .28125-.78125 .25-.8125-2-.1875-2-.1875 2.28125-.0625 2.25-.09375zm-17.5625.46875 4.84375.0625 4.875.0625-.84375.21875-.84375.21875 .3125,1.03125 .46875,1.5 .15625.46875-2.78125,1.78125c-1.30252,1.07403-2.86213,2.28124-3.125,2.28125l-.375.21875-1.46875-3.8125c-.68065-1.70025-1.21873-3.3041-1.21875-3.5625v-.46875zm65.0625,5.65625c13.732,1e-005 24.84375,11.11177 24.84375,24.84375s-11.11177,24.84375-24.84375,24.84375-24.84375-11.11177-24.84375-24.84375c1e-005-7.03758 2.89973-13.38811 7.59375-17.90625l3.5625,6.46875 4.03125,6.3125 1.78125,2.34375 2.625,2.0625c1.43635,1.13134 3.12586,2.26934 3.75,2.53125l1.125.46875 .875-.78125 .90625-.8125v-.84375-.84375l-.75-.75-.75-.71875h-1.09375-1.125l-2.40625-2.65625-2.4375-2.6875-2.84375-5.75-3.5-7.3125c3.88205-2.51065 8.52772-3.96875 13.5-3.96875zm-49.40625,2.375v.84375c-.00855,1.2883-1.13289,5.18536-2.65625,9.28125l-1.34375,3.6875h-.59375c-.31722,0-.68945.21907-.84375.46875l-.28125.4375 1.15625.75c.63742.41764 1.61017.80261 2.15625.84375l.96875.0625v.625 .625h-.375c-.21762,0-.54755-.14129-.71875-.3125s-1.07869-.43852-2.03125-.59375l-1.75-.28125-1.34375-3.40625-1.375-3.40625 1.3125-1.40625c.71813-.7589 2.32217-2.67899 3.5625-4.28125l2.25-2.90625 .96875-.5 .9375-.53125zm-42.71875.03125c4.86652,0 9.4196,1.39929 13.25,3.8125-1.93954,2.79446-3.88688,5.58975-6,8.59375l-2.46875,3.5-3.34375,1.59375-3.3125,1.59375-1.5625,1.53125c-.86125.8383-1.8142,1.95322-2.125,2.5l-.5625,1 .53125,1.71875 .5,1.71875h.40625 .40625v.6875 .71875h.46875c.26116,0 .46874.2076.46875.46875v.5h-1.1875-1.15625l-.75-1.125-.71875-1.125 .5-1.3125 .5-1.34375-.25-.21875-.25-.25-.28125.90625c-.16177.4944-.37023,1.17046-.46875,1.5l-.1875.59375 .53125,1.1875 .53125,1.15625 .9375.28125c.50952.16171 1.65705.31249 2.5625.3125h1.65625l.25.625 .25.65625 .59375-.25 .625-.25-.25,1.3125-.25,1.28125-.6875-.90625-.6875-.90625 .3125,1.0625 .3125,1.09375-.75.28125-.75.28125v1.34375 1.375l1.09375.5 1.0625.53125-.84375-.6875-.8125-.65625v-.75-.78125l1.65625-.78125c.91827-.43573 1.79755-.96109 1.9375-1.1875l.25-.4375-.71875.28125-.6875.28125 .25-1 .28125-1 .71875.59375 .71875.59375-.5625-1.0625c-.31308-.58761-.77929-1.0625-1.03125-1.0625h-.4375v-.53125-.53125l.6875.28125 .71875.28125v-.46875-.46875h.71875 .71875v-.46875-.46875h.75 .78125l-.28125-.71875-.28125-.71875h.4375 .40625l-.15625-2.8125-.1875-2.84375 .40625-.25c.21236-.13124 2.56458-3.32319 5.25-7.09375 2.14777-2.65855 4.03979-5.28521 5.90625-7.9375 5.20965,4.55232 8.5,11.24859 8.5,18.71875-3e-005,13.73198-11.11177,24.84375-24.84375,24.84375s-24.84375-11.11177-24.84375-24.84375 11.11177-24.84375 24.84375-24.84375zm98.5,1.53125-.71875.28125-.71875.28125v1.5625 1.59375l1.78125.625c.9793.3517 2.52348,1.15848 3.4375,1.78125l1.65625,1.125 1.09375-1.21875c.5876-.67541 1.06249-1.38618 1.0625-1.59375 0-.46-3.95018-2.94597-6.0625-3.8125l-1.53125-.625zm-71.40625.8125-.71875,1.15625-.53125.90625c-.18277.84875-.6419,2.11147-1,2.8125l-.625,1.28125 1.25,2.53125c.6869,1.38822 1.45466,2.78997 1.71875,3.125l.46875.59375 1.34375-1.53125 1.34375-1.5625-.15625-.5c-.07812-.26115-.74367-2.22047-1.5-4.375l-1.1875-3.28125-.40625-1.15625zm13.71875,10.8125v.5625 .5625l1.0625.4375 1.09375.4375-.78125.03125-.78125.03125-.59375-.75-.59375-.71875 .28125-.28125 .3125-.3125zm6.1875,1.1875 2.46875.9375c1.37114.52028 2.58639,1.05639 2.6875,1.15625s-.49375.12007-1.3125.0625l-1.46875-.09375v-.40625-.375l-.5.28125-.46875.3125v-.5-.5h-.96875-.96875l.25-.4375 .28125-.4375zm2.40625,2.53125-.5,1.03125c-.83671,1.73204-.52851,1.87745.75.375l1.21875-1.40625-.53125,1.03125c-.28434.57042-.50001,1.19177-.5,1.375v.34375l2.0625-.3125c1.14494-.15692 2.97343-.59354 4.0625-.96875l2-.65625-.15625.78125-.15625.78125-1.65625.34375c-.91126.19719-4.32931.82376-7.59375,1.375s-6.47212,1.06212-7.125,1.15625l-1.1875.1875-1.1875-.5625-1.1875-.53125 2.84375-.34375 2.84375-.34375 .15625-.46875 .15625-.46875 .875.21875 .875.21875 1.03125-1.09375 1.03125-1.125-.3125.84375-.34375.8125h.53125c.28911,0 .53124-.16376.53125-.375s.34387-.80556.75-1.3125l.71875-.90625zm-45.5625.15625-.625.96875-.625,1-.71875.03125c-.3942.01941-1.25339.13847-1.90625.25l-1.1875.1875 1.4375-.875c.78348-.4943 1.92716-1.06824 2.53125-1.25l1.09375-.3125zm48.84375,3.875h.71875 .71875v.46875 .46875h-.71875-.71875v-.46875-.46875zm-15.375,1.8125 1.125.15625 1.125.15625 .1875.59375 .1875.59375-1.375-.28125-1.40625-.28125-.3125.8125-.3125.84375 .53125.625c.71229.85825 1.34917.83164 2.40625-.125l.875-.78125v.5c1e-005,.28298-.33962.87087-.75,1.28125-.90067.90069-1.58438.93112-2.6875.09375l-.84375-.65625v-.90625-.9375l.625-.84375 .625-.84375zm-5.5625,2.875c.08603-.00893.18319.05819.3125.1875 .15169.15169.21672.76497.125,1.375l-.1875,1.09375-.3125-1.15625c-.24614-.87645-.19555-1.47321.0625-1.5zm1.96875,3.6875 .8125.78125 .78125.8125h-.4375c-.25181-.004-.77206-.22579-1.15625-.46875l-.71875-.4375 .375-.34375 .34375-.34375zm-51.53125.71875-.5625.03125c-.30151.00357-1.00612.12377-1.59375.28125l-1.09375.28125v.75c0,1.14318 1.70696,4.3943 3.34375,6.375 .80929.97933 1.6505,1.78125 1.84375,1.78125s.91787-.60564 1.625-1.34375l1.28125-1.34375-1-.90625c-.55965-.50239-1.66103-2.03518-2.4375-3.40625l-1.40625-2.5zm18.34375,5.09375-1,.5c-.54163.28987-.96876.74804-.96875,1 1e-005,.747.86948.52011 1.4375-.375l.5-.84375-.15625,1.21875-.1875,1.1875 1.5625-.1875 1.375-.15625c.04696-.04899.11911-.10983.15625-.15625l.0625-.09375v-.25-.46875l-1.15625.21875-1.15625.21875-.21875-.90625-.25-.90625z"/>
 </g>
</svg>
